{"glyphs":{"0":{"ha":714,"x_min":0,"x_max":0,"o":"m 657 444 b 607 136 657 333 649 229 b 356 -31 549 8 446 -31 b 118 110 292 -31 183 -8 b 56 444 58 219 56 354 b 107 758 56 550 63 663 b 357 925 168 892 274 925 b 604 761 438 925 543 892 b 657 444 653 657 657 538 m 538 461 b 522 733 538 549 538 657 b 356 890 496 863 408 890 b 192 742 308 890 219 865 b 175 461 175 665 175 556 b 189 181 175 382 175 263 b 357 4 215 24 315 4 b 524 176 392 4 494 18 b 538 461 538 258 538 375 "},"1":{"ha":714,"x_min":0,"x_max":0,"o":"m 600 0 b 368 4 550 4 425 4 b 138 0 311 4 188 4 l 138 43 l 182 43 b 315 111 311 43 315 60 l 315 829 b 129 793 240 793 156 793 l 129 836 b 386 925 172 836 300 836 b 422 888 421 925 422 922 l 422 111 b 556 43 422 60 426 43 l 600 43 l 600 0 "},"2":{"ha":714,"x_min":0,"x_max":0,"o":"m 603 0 l 71 0 b 86 50 71 32 71 35 l 340 325 b 514 654 407 397 514 513 b 324 882 514 750 465 882 b 126 739 249 882 160 838 b 143 740 132 740 136 740 b 215 668 186 740 215 710 b 143 596 215 618 174 596 b 71 672 131 596 71 603 b 339 925 71 799 179 925 b 642 654 510 925 642 814 b 329 242 642 513 557 439 l 192 111 l 439 111 b 571 124 467 111 563 111 b 603 246 589 146 600 228 l 642 246 "},"3":{"ha":714,"x_min":0,"x_max":0,"o":"m 653 236 b 350 -31 653 94 524 -31 b 60 189 189 -31 60 65 b 136 268 60 247 101 268 b 211 193 176 268 211 239 b 122 118 211 146 172 111 b 346 8 185 15 319 8 b 511 236 417 8 511 58 b 338 465 511 368 458 465 l 272 465 b 238 483 249 465 238 465 b 261 501 238 499 249 500 b 310 504 272 501 275 501 b 442 572 350 507 399 510 b 485 733 476 625 485 692 b 347 890 485 799 463 890 b 158 804 279 890 194 863 b 239 735 206 804 239 783 b 169 665 239 694 210 665 b 99 738 129 665 99 692 b 351 925 99 843 207 925 b 614 735 496 925 614 842 b 424 489 614 639 553 538 b 653 236 557 460 653 357 "},"4":{"ha":714,"x_min":0,"x_max":0,"o":"m 531 229 l 531 110 b 639 43 531 58 535 43 l 669 43 l 669 0 b 475 4 582 4 482 4 b 281 0 465 4 368 4 l 281 43 l 311 43 b 419 110 415 43 419 58 l 419 229 l 40 229 l 40 272 l 474 919 b 504 940 486 939 488 940 b 531 903 531 940 531 931 l 531 272 l 672 272 l 672 229 m 428 786 l 85 272 l 428 272 "},"5":{"ha":714,"x_min":0,"x_max":0,"o":"m 642 278 b 331 -31 642 106 499 -31 b 71 224 176 -31 71 97 b 139 296 71 279 110 296 b 207 228 176 296 207 271 b 139 160 207 178 167 160 b 119 163 129 160 119 163 b 328 8 153 60 246 8 b 478 93 382 8 440 35 b 517 285 517 156 517 242 b 368 549 517 335 517 549 b 188 457 296 549 229 515 b 164 439 179 444 175 439 b 144 479 144 439 144 454 l 144 888 b 161 925 144 911 144 925 b 179 918 161 925 165 925 b 365 881 243 892 306 881 b 553 918 424 881 488 892 b 571 925 565 925 571 925 b 586 907 578 925 586 919 b 315 765 586 889 486 765 b 188 785 272 765 229 772 l 188 511 b 371 583 236 561 304 583 b 642 278 522 583 642 446 "},"6":{"ha":714,"x_min":0,"x_max":0,"o":"m 653 282 b 360 -31 653 99 514 -31 b 60 439 229 -31 60 63 b 435 925 60 749 256 925 b 617 774 561 925 617 851 b 551 707 617 732 590 707 b 488 771 513 707 488 735 b 561 835 488 808 510 835 b 438 890 529 885 465 890 b 239 753 335 890 267 810 b 186 460 201 681 186 601 b 368 592 225 543 285 592 b 653 282 525 592 653 458 m 526 283 b 500 471 526 350 526 418 b 365 557 456 557 388 557 b 189 314 232 557 189 407 b 217 114 189 292 190 176 b 358 8 233 74 279 8 b 500 97 396 8 457 18 b 526 283 526 149 526 217 "},"7":{"ha":714,"x_min":0,"x_max":0,"o":"m 693 894 b 681 847 693 865 693 863 l 486 582 b 382 117 413 482 382 321 l 382 49 b 317 -31 382 31 382 -31 b 253 47 253 -31 253 32 b 450 601 253 126 269 353 l 583 783 l 292 783 b 153 775 272 783 163 783 b 118 649 135 758 124 681 l 79 649 l 125 939 l 164 939 b 347 894 168 913 172 894 l 693 894 "},"8":{"ha":714,"x_min":0,"x_max":0,"o":"m 653 233 b 356 -31 653 83 517 -31 b 60 210 206 -31 60 63 b 264 467 60 324 142 408 b 151 550 183 518 175 524 b 99 693 118 590 99 640 b 358 925 99 821 213 925 b 614 718 483 925 614 849 b 443 503 614 606 513 536 b 515 457 460 493 500 468 b 653 233 550 435 653 368 m 547 718 b 354 890 547 815 461 890 b 165 746 263 890 165 836 b 239 631 165 694 197 657 l 408 525 b 547 718 464 557 547 621 m 578 185 b 476 335 578 269 508 314 l 301 443 b 135 210 204 393 135 310 b 357 8 135 94 236 8 b 578 185 467 8 578 75 "},"9":{"ha":714,"x_min":0,"x_max":0,"o":"m 653 457 b 294 -31 653 153 474 -31 b 96 121 169 -31 96 29 b 161 188 96 163 122 188 b 225 124 200 188 225 160 b 160 60 225 68 171 57 l 154 60 b 293 8 190 14 261 8 b 526 407 372 8 526 68 l 526 438 b 344 304 501 378 446 304 b 60 614 188 304 60 438 b 361 925 60 796 201 925 b 653 457 486 925 653 833 m 524 585 b 499 781 524 644 518 729 b 361 890 493 794 456 890 b 215 801 311 890 257 872 b 186 613 186 749 186 679 b 213 425 186 546 186 478 b 347 339 257 339 325 339 b 524 585 478 339 524 483 "},"|":{"ha":397,"x_min":0,"x_max":0,"o":"m 228 -299 b 199 -347 228 -318 228 -347 b 168 -299 168 -347 168 -321 l 168 993 b 199 1042 168 1015 168 1042 b 228 993 228 1042 228 1013 l 228 -299 "},"e":{"ha":635,"x_min":0,"x_max":0,"o":"m 593 165 b 356 -15 593 133 525 -15 b 40 306 186 -15 40 124 b 338 622 40 478 171 622 b 593 347 515 622 593 490 b 556 318 593 318 586 318 l 160 318 b 207 108 160 260 161 176 b 363 24 239 61 296 24 b 554 168 383 24 507 26 b 574 183 556 174 560 183 b 593 165 586 183 593 175 m 499 351 b 338 588 497 529 414 588 b 161 351 299 588 174 565 l 499 351 "},"-":{"ha":476,"x_min":0,"x_max":0,"o":"m 15 257 l 15 343 l 396 343 l 396 257 "},"I":{"ha":515,"x_min":0,"x_max":0,"o":"m 468 0 b 257 4 411 4 317 4 b 46 0 197 4 103 4 l 46 43 l 81 43 b 194 110 192 43 194 60 l 194 839 b 81 906 194 889 192 906 l 46 906 l 46 949 b 257 944 103 944 197 944 b 468 949 317 944 411 944 l 468 906 l 433 906 b 319 839 322 906 319 889 l 319 110 b 433 43 319 60 322 43 l 468 43 l 468 0 "},"i":{"ha":397,"x_min":0,"x_max":0,"o":"m 351 0 b 203 4 283 4 225 4 b 50 0 142 4 113 3 l 50 43 b 157 107 142 43 157 43 l 157 479 b 56 556 157 547 144 556 l 56 599 l 256 614 l 256 104 b 351 43 256 50 261 43 l 351 0 m 274 838 b 199 763 274 796 240 763 b 124 838 157 763 124 796 b 199 913 124 879 157 913 b 274 838 240 913 274 879 "},"m":{"ha":1189,"x_min":0,"x_max":0,"o":"m 1157 0 b 999 4 1083 3 1065 4 b 840 0 932 4 906 3 l 840 43 b 947 107 932 43 947 43 l 947 428 b 846 579 947 525 922 579 b 654 360 763 579 654 510 l 654 107 b 761 43 654 43 669 43 l 761 0 b 603 4 688 3 669 4 b 444 0 536 4 510 3 l 444 43 b 551 107 536 43 551 43 l 551 428 b 450 579 551 525 526 579 b 258 360 367 579 258 510 l 258 107 b 365 43 258 43 274 43 l 365 0 b 207 4 292 3 274 4 b 49 0 140 4 114 3 l 49 43 b 156 107 140 43 156 43 l 156 478 b 49 556 156 546 143 556 l 49 599 l 250 614 l 250 478 l 251 478 b 460 614 281 542 349 614 b 649 482 576 614 632 564 b 856 614 688 556 756 614 b 1004 564 919 614 975 597 b 1050 353 1050 513 1050 474 l 1050 86 b 1157 43 1051 43 1086 43 l 1157 0 "},"(":{"ha":556,"x_min":0,"x_max":0,"o":"m 474 -331 b 457 -346 474 -340 467 -346 b 229 -74 440 -346 311 -244 b 140 349 153 90 140 249 b 240 790 140 514 174 657 b 457 1042 315 942 440 1042 b 474 1026 467 1042 474 1036 b 465 1010 474 1019 471 1015 b 228 347 269 824 228 563 b 461 -310 228 104 282 -146 b 474 -331 469 -319 474 -324 "},")":{"ha":556,"x_min":0,"x_max":0,"o":"m 414 349 b 314 -94 414 182 381 39 b 97 -346 239 -246 114 -346 b 81 -331 83 -346 81 -335 b 89 -314 81 -324 86 -318 b 326 349 290 -126 326 150 b 93 1006 326 744 174 933 b 81 1026 83 1015 81 1019 b 97 1042 81 1031 83 1042 b 325 769 114 1042 243 940 b 414 349 397 615 414 463 "},"+":{"ha":1110,"x_min":0,"x_max":0,"o":"m 1029 347 b 981 318 1029 318 1000 318 l 585 318 l 585 -79 b 556 -128 585 -99 585 -128 b 525 -79 525 -128 525 -101 l 525 318 l 128 318 b 79 349 106 318 79 318 b 128 378 79 378 108 378 l 525 378 l 525 775 b 554 824 525 794 525 824 b 585 775 585 824 585 797 l 585 378 l 981 378 b 1029 347 1003 378 1029 378 "},"R":{"ha":1050,"x_min":0,"x_max":0,"o":"m 1044 124 b 907 -31 1044 90 1024 -31 b 743 21 892 -31 808 -31 b 676 228 676 74 676 135 b 635 399 676 326 676 347 b 485 457 629 404 585 457 l 318 457 l 318 110 b 428 43 318 58 321 43 l 460 43 l 460 0 b 257 4 393 4 324 4 b 56 0 190 4 121 4 l 56 43 l 88 43 b 197 110 194 43 197 58 l 197 839 b 88 906 197 890 194 906 l 56 906 l 56 949 l 499 949 b 871 699 703 949 871 836 b 631 471 871 590 763 508 b 808 243 785 422 797 329 b 842 56 817 181 829 86 b 913 4 853 32 868 4 b 1006 125 956 4 999 38 b 1025 149 1007 136 1007 149 b 1044 124 1044 149 1044 132 m 729 699 b 433 906 729 906 553 906 b 347 903 404 906 360 906 b 318 849 321 897 318 885 l 318 492 l 479 492 b 729 699 668 492 729 579 "}," ":{"ha":476,"x_min":0,"x_max":0,"o":""},"w":{"ha":1031,"x_min":0,"x_max":0,"o":"m 1001 556 b 885 464 972 554 915 549 l 719 13 b 689 -15 714 -1 710 -15 b 657 14 668 -15 663 0 l 514 403 l 372 14 b 340 -15 367 0 361 -15 b 308 15 319 -15 315 -1 l 129 506 b 28 556 113 553 94 556 l 28 599 b 161 594 75 594 115 594 l 313 599 l 313 556 b 232 518 286 556 232 556 b 240 489 232 513 232 510 l 372 128 l 486 440 l 493 460 b 463 535 493 464 475 519 b 375 556 447 554 419 556 l 375 599 b 503 594 419 594 460 594 b 646 599 525 594 582 594 l 646 556 b 567 517 610 556 567 553 b 574 490 567 513 567 508 l 714 110 l 842 457 b 849 489 846 467 849 475 b 769 556 849 517 829 554 l 769 599 b 897 594 825 594 844 594 b 1001 599 943 594 946 594 l 1001 556 "},"z":{"ha":635,"x_min":0,"x_max":0,"o":"m 550 0 l 78 0 b 40 22 53 0 40 0 b 53 47 40 29 40 32 l 444 564 l 289 564 b 99 371 132 564 107 513 l 60 371 l 75 599 l 532 599 b 569 578 556 599 569 599 b 557 554 569 572 569 569 l 167 39 l 329 39 b 535 264 503 39 521 110 l 574 264 "},"∞":{"ha":1428,"x_min":0,"x_max":0,"o":"m 576 353 b 326 535 507 439 431 535 b 128 300 210 535 128 424 b 331 42 128 165 207 42 b 643 267 468 42 569 146 m 1300 300 b 1097 557 1300 433 1221 557 b 785 332 960 557 858 453 l 851 246 b 1101 64 921 160 997 64 b 1300 300 1218 64 1300 175 m 1364 300 b 1068 -36 1364 121 1239 -36 b 735 153 933 -36 818 47 l 703 193 b 356 -32 618 68 503 -32 b 64 300 188 -32 64 124 b 360 635 64 478 189 635 b 693 446 494 635 610 551 l 725 406 b 1072 631 810 531 925 631 b 1364 300 1240 631 1364 475 "},"Ω":{"ha":1031,"x_min":0,"x_max":0,"o":"m 918 0 l 690 0 b 653 29 660 0 653 0 b 738 349 653 128 697 242 b 808 632 771 433 808 529 b 514 944 808 838 661 944 b 221 632 374 944 221 843 b 290 349 221 535 254 442 b 376 29 332 243 376 128 b 339 0 376 0 369 0 l 111 0 l 64 226 l 103 226 b 129 121 110 190 121 142 b 221 92 136 103 140 92 l 332 92 b 215 313 315 157 288 207 b 79 631 149 410 79 510 b 515 979 79 819 267 979 b 950 631 758 979 950 822 b 811 310 950 511 883 414 b 697 92 746 214 715 161 l 808 92 b 901 125 889 92 893 103 b 926 226 908 144 918 189 l 965 226 "},"¹":{"ha":525,"x_min":0,"x_max":0,"o":"m 432 425 b 265 428 396 428 306 428 b 99 425 224 428 135 428 l 99 450 l 131 450 b 226 492 224 450 226 461 l 226 922 b 93 900 174 900 113 900 l 93 926 b 278 979 124 926 217 926 b 304 957 303 979 304 978 l 304 492 b 400 450 304 461 307 450 l 432 450 l 432 425 "},"√":{"ha":674,"x_min":0,"x_max":0,"o":"m 746 993 b 701 965 743 968 721 965 l 618 965 b 599 967 613 965 606 967 b 571 931 575 967 578 949 l 299 -82 b 254 -143 292 -107 290 -143 l 242 -143 b 224 -115 224 -143 226 -128 l 161 186 b 140 294 154 222 144 258 l 56 167 b 33 190 49 172 36 181 l 33 193 b 69 251 33 201 57 233 l 149 372 b 193 440 164 394 179 417 l 274 57 l 388 479 l 517 960 b 568 1025 526 990 524 1025 l 674 1025 b 700 1026 682 1025 690 1026 b 746 993 724 1026 746 1018 "},"³":{"ha":513,"x_min":0,"x_max":0,"o":"m 469 567 b 251 407 469 482 376 407 b 43 538 136 407 43 464 b 99 586 43 574 74 586 b 151 540 126 586 151 568 b 88 496 151 513 124 492 b 249 429 133 433 231 429 b 368 567 300 429 368 460 b 243 704 368 646 331 704 l 196 704 b 171 715 179 704 171 704 b 188 725 171 724 179 725 b 224 728 196 725 199 725 b 318 768 251 729 288 731 b 349 865 343 800 349 840 b 250 958 349 904 333 958 b 114 907 201 958 140 942 b 172 865 149 907 172 894 b 122 824 172 842 151 824 b 71 867 93 824 71 840 b 253 979 71 931 149 979 b 442 865 357 979 442 929 b 306 718 442 808 399 747 b 469 567 401 700 469 639 "},"²":{"ha":513,"x_min":0,"x_max":0,"o":"m 433 425 l 51 425 b 63 454 51 444 51 446 l 244 619 b 369 817 293 663 369 732 b 233 954 369 875 335 954 b 92 868 179 954 115 928 b 103 869 94 869 99 869 b 156 825 133 869 156 850 b 103 782 156 796 125 782 b 51 828 94 782 51 786 b 244 979 51 904 129 979 b 463 817 367 979 463 913 b 238 569 463 732 401 688 l 138 492 l 317 492 b 411 499 336 492 406 492 b 433 572 424 513 432 561 l 463 572 "}}}
